<svg width="34" height="34" viewBox="0 0 34 34" fill="none" xmlns="http://www.w3.org/2000/svg">
  <rect width="34" height="34" fill="#000000"/>
  <path d="M19.854 0H13.145C12.523 0 12 0.523 12 1.145V6.627C12 6.891 12.255 7.047 12.488 6.955C13.949 6.386 15.569 6.105 17.246 6.151C17.246 6.327 17.246 6.503 17.246 6.68C17.246 11.746 21.254 15.754 26.32 15.754C26.675 15.754 27.027 15.735 27.375 15.699V13.348C27.375 13.107 27.539 12.904 27.771 12.839C28.693 12.586 29.626 12.351 30.572 12.138C30.86 12.073 31 11.8 31 11.554V5.712C31 5.328 30.671 5 30.287 5H19.854V0ZM24.603 17.889C23.029 18.539 21.342 18.873 19.625 18.87C19.625 18.722 19.625 18.574 19.625 18.426V13.942C19.625 13.36 19.183 12.918 18.601 12.918H12.625C12.043 12.918 11.601 13.36 11.601 13.942V18.426C11.601 22.905 15.366 26.67 19.845 26.67C22.643 26.67 25.178 25.334 26.602 23.18C26.707 23.015 26.877 22.91 27.067 22.888C28.288 22.724 29.523 22.558 30.76 22.426C30.962 22.405 31.095 22.222 31.091 22.019V16.207C31.091 15.823 30.762 15.494 30.378 15.494H24.618C24.628 16.347 24.623 17.137 24.603 17.889Z" fill="white"/>
</svg>
