<svg width="34" height="34" viewBox="0 0 34 34" fill="none" xmlns="http://www.w3.org/2000/svg">
<rect width="34" height="34" fill="#006D60"/>
<path d="M16.9973 11.869C14.1579 11.869 11.8664 14.1606 11.8664 17C11.8664 19.8394 14.1579 22.131 16.9973 22.131C19.8367 22.131 22.1282 19.8394 22.1282 17C22.1282 14.1606 19.8367 11.869 16.9973 11.869ZM16.9973 20.3348C15.1611 20.3348 13.6626 18.8362 13.6626 17C13.6626 15.1638 15.1611 13.6652 16.9973 13.6652C18.8335 13.6652 20.332 15.1638 20.332 17C20.332 18.8362 18.8335 20.3348 16.9973 20.3348ZM22.3383 10.4631C21.6754 10.4631 21.14 10.9984 21.14 11.6614C21.14 12.3243 21.6754 12.8597 22.3383 12.8597C23.0013 12.8597 23.5366 12.3268 23.5366 11.6614C23.5368 11.504 23.5059 11.3481 23.4458 11.2026C23.3856 11.0571 23.2974 10.9249 23.1861 10.8136C23.0748 10.7023 22.9426 10.614 22.7971 10.5539C22.6516 10.4937 22.4957 10.4629 22.3383 10.4631ZM26.9989 17C26.9989 15.6191 27.0114 14.2506 26.9338 12.8722C26.8563 11.2711 26.4911 9.85017 25.3203 8.67938C24.147 7.50609 22.7286 7.14334 21.1275 7.06579C19.7466 6.98824 18.3782 7.00074 16.9998 7.00074C15.6189 7.00074 14.2505 6.98824 12.8721 7.06579C11.271 7.14334 9.85012 7.50859 8.67935 8.67938C7.50608 9.85267 7.14334 11.2711 7.06579 12.8722C6.98824 14.2531 7.00074 15.6216 7.00074 17C7.00074 18.3784 6.98824 19.7494 7.06579 21.1278C7.14334 22.7289 7.50858 24.1498 8.67935 25.3206C9.85262 26.4939 11.271 26.8567 12.8721 26.9342C14.253 27.0118 15.6214 26.9993 16.9998 26.9993C18.3807 26.9993 19.7491 27.0118 21.1275 26.9342C22.7286 26.8567 24.1495 26.4914 25.3203 25.3206C26.4936 24.1473 26.8563 22.7289 26.9338 21.1278C27.0139 19.7494 26.9989 18.3809 26.9989 17ZM24.7974 22.899C24.6148 23.3543 24.3947 23.6945 24.0419 24.0448C23.6892 24.3975 23.3515 24.6176 22.8962 24.8003C21.5803 25.3231 18.4558 25.2055 16.9973 25.2055C15.5389 25.2055 12.4118 25.3231 11.0959 24.8028C10.6406 24.6201 10.3004 24.4 9.95018 24.0473C9.59745 23.6945 9.37731 23.3568 9.19469 22.9015C8.67434 21.5831 8.79192 18.4585 8.79192 17C8.79192 15.5415 8.67434 12.4144 9.19469 11.0985C9.37731 10.6432 9.59745 10.303 9.95018 9.95274C10.3029 9.6025 10.6406 9.37985 11.0959 9.19723C12.4118 8.67688 15.5389 8.79446 16.9973 8.79446C18.4558 8.79446 21.5828 8.67688 22.8987 9.19723C23.354 9.37985 23.6942 9.6 24.0444 9.95274C24.3972 10.3055 24.6173 10.6432 24.7999 11.0985C25.3203 12.4144 25.2027 15.5415 25.2027 17C25.2027 18.4585 25.3203 21.5831 24.7974 22.899Z" fill="white"/>
</svg>
