<svg width="34" height="34" viewBox="0 0 34 34" fill="none" xmlns="http://www.w3.org/2000/svg">
<rect width="34" height="34" fill="#006D60"/>
<path d="M15.3 19.4286L19.7115 17L15.3 14.5714V19.4286ZM25.126 13.09C25.2365 13.4705 25.313 13.9805 25.364 14.6281C25.4235 15.2757 25.449 15.8343 25.449 16.32L25.5 17C25.5 18.7728 25.364 20.0762 25.126 20.91C24.9135 21.6386 24.4205 22.1081 23.6555 22.3105C23.256 22.4157 22.525 22.4886 21.403 22.5371C20.298 22.5938 19.2865 22.6181 18.3515 22.6181L17 22.6666C13.4385 22.6666 11.22 22.5371 10.3445 22.3105C9.5795 22.1081 9.0865 21.6386 8.874 20.91C8.7635 20.5295 8.687 20.0195 8.636 19.3719C8.5765 18.7243 8.551 18.1657 8.551 17.68L8.5 17C8.5 15.2271 8.636 13.9238 8.874 13.09C9.0865 12.3614 9.5795 11.8919 10.3445 11.6895C10.744 11.5843 11.475 11.5114 12.597 11.4628C13.702 11.4062 14.7135 11.3819 15.6485 11.3819L17 11.3333C20.5615 11.3333 22.78 11.4628 23.6555 11.6895C24.4205 11.8919 24.9135 12.3614 25.126 13.09Z" fill="white"/>
</svg>
