<svg width="109" height="103" viewBox="0 0 109 103" fill="none" xmlns="http://www.w3.org/2000/svg">
<rect x="0.5" y="0.5" width="108" height="102" rx="4.5" stroke="#8E8E8E"/>
<path d="M71 68H39C36.8 68 35 66.2 35 64V38C35 35.8 36.8 34 39 34H71C73.2 34 75 35.8 75 38V64C75 66.2 73.2 68 71 68Z" fill="#F57C00"/>
<path d="M66 46C67.6569 46 69 44.6569 69 43C69 41.3431 67.6569 40 66 40C64.3431 40 63 41.3431 63 43C63 44.6569 64.3431 46 66 46Z" fill="#FFF9C4"/>
<path d="M51 43L40 59H62L51 43Z" fill="#942A09"/>
<path d="M62 49L54 59H70L62 49Z" fill="#BF360C"/>
</svg>
