<svg width="43" height="28" viewBox="0 0 43 28" fill="none" xmlns="http://www.w3.org/2000/svg">
<path d="M42.0701 1.50085C41.4744 0.831493 40.6667 0.455469 39.8245 0.455469C38.9823 0.455469 38.1745 0.831493 37.5789 1.50085L21.8567 19.1746L6.13449 1.50085C5.53546 0.850464 4.73314 0.490582 3.90035 0.498716C3.06756 0.506851 2.27093 0.882353 1.68203 1.54434C1.09314 2.20634 0.759106 3.10185 0.751869 4.03802C0.744633 4.97418 1.06477 5.87609 1.64334 6.54948L19.6111 26.7476C20.2067 27.4169 21.0145 27.793 21.8567 27.793C22.6989 27.793 23.5066 27.4169 24.1023 26.7476L42.0701 6.54948C42.6655 5.87992 43 4.97193 43 4.02517C43 3.07841 42.6655 2.17041 42.0701 1.50085Z" fill="black"/>
</svg>
