<svg width="34" height="34" viewBox="0 0 34 34" fill="none" xmlns="http://www.w3.org/2000/svg">
<rect width="34" height="34" fill="#006D60"/>
<path d="M15.3 19.4285L19.7115 16.9999L15.3 14.5713V19.4285ZM25.126 13.0899C25.2365 13.4704 25.313 13.9804 25.364 14.628C25.4235 15.2756 25.449 15.8342 25.449 16.3199L25.5 16.9999C25.5 18.7728 25.364 20.0761 25.126 20.9099C24.9135 21.6385 24.4205 22.108 23.6555 22.3104C23.256 22.4156 22.525 22.4885 21.403 22.5371C20.298 22.5937 19.2865 22.618 18.3515 22.618L17 22.6666C13.4385 22.6666 11.22 22.5371 10.3445 22.3104C9.5795 22.108 9.0865 21.6385 8.874 20.9099C8.7635 20.5294 8.687 20.0194 8.636 19.3718C8.5765 18.7242 8.551 18.1656 8.551 17.6799L8.5 16.9999C8.5 15.2271 8.636 13.9237 8.874 13.0899C9.0865 12.3613 9.5795 11.8918 10.3445 11.6894C10.744 11.5842 11.475 11.5113 12.597 11.4628C13.702 11.4061 14.7135 11.3818 15.6485 11.3818L17 11.3333C20.5615 11.3333 22.78 11.4628 23.6555 11.6894C24.4205 11.8918 24.9135 12.3613 25.126 13.0899Z" fill="white"/>
</svg>
